<svg width="68" height="68" viewBox="0 0 68 68" fill="none" xmlns="http://www.w3.org/2000/svg">
<path d="M16.5 4C13.1848 4 10.0054 5.31696 7.66117 7.66117C5.31696 10.0054 4 13.1848 4 16.5V19H64V16.5C64 13.1848 62.683 10.0054 60.3388 7.66117C57.9946 5.31696 54.8152 4 51.5 4H16.5ZM4 51.5V24H64V51.5C64 54.8152 62.683 57.9946 60.3388 60.3388C57.9946 62.683 54.8152 64 51.5 64H16.5C13.1848 64 10.0054 62.683 7.66117 60.3388C5.31696 57.9946 4 54.8152 4 51.5ZM20.25 39C21.2446 39 22.1984 38.6049 22.9017 37.9016C23.6049 37.1984 24 36.2446 24 35.25C24 34.2554 23.6049 33.3016 22.9017 32.5983C22.1984 31.8951 21.2446 31.5 20.25 31.5C19.2554 31.5 18.3016 31.8951 17.5983 32.5983C16.8951 33.3016 16.5 34.2554 16.5 35.25C16.5 36.2446 16.8951 37.1984 17.5983 37.9016C18.3016 38.6049 19.2554 39 20.25 39ZM24 47.75C24 46.7554 23.6049 45.8016 22.9017 45.0984C22.1984 44.3951 21.2446 44 20.25 44C19.2554 44 18.3016 44.3951 17.5983 45.0984C16.8951 45.8016 16.5 46.7554 16.5 47.75C16.5 48.7446 16.8951 49.6984 17.5983 50.4016C18.3016 51.1049 19.2554 51.5 20.25 51.5C21.2446 51.5 22.1984 51.1049 22.9017 50.4016C23.6049 49.6984 24 48.7446 24 47.75ZM34 51.5C34.9946 51.5 35.9484 51.1049 36.6516 50.4016C37.3549 49.6984 37.75 48.7446 37.75 47.75C37.75 46.7554 37.3549 45.8016 36.6516 45.0984C35.9484 44.3951 34.9946 44 34 44C33.0054 44 32.0516 44.3951 31.3483 45.0984C30.6451 45.8016 30.25 46.7554 30.25 47.75C30.25 48.7446 30.6451 49.6984 31.3483 50.4016C32.0516 51.1049 33.0054 51.5 34 51.5ZM37.75 35.25C37.75 34.2554 37.3549 33.3016 36.6516 32.5983C35.9484 31.8951 34.9946 31.5 34 31.5C33.0054 31.5 32.0516 31.8951 31.3483 32.5983C30.6451 33.3016 30.25 34.2554 30.25 35.25C30.25 36.2446 30.6451 37.1984 31.3483 37.9016C32.0516 38.6049 33.0054 39 34 39C34.9946 39 35.9484 38.6049 36.6516 37.9016C37.3549 37.1984 37.75 36.2446 37.75 35.25ZM47.75 39C48.7446 39 49.6984 38.6049 50.4016 37.9016C51.1049 37.1984 51.5 36.2446 51.5 35.25C51.5 34.2554 51.1049 33.3016 50.4016 32.5983C49.6984 31.8951 48.7446 31.5 47.75 31.5C46.7554 31.5 45.8016 31.8951 45.0984 32.5983C44.3951 33.3016 44 34.2554 44 35.25C44 36.2446 44.3951 37.1984 45.0984 37.9016C45.8016 38.6049 46.7554 39 47.75 39Z" fill="#C7E7A4"/>
</svg>
