<svg width="44" height="44" viewBox="0 0 44 44" fill="none" xmlns="http://www.w3.org/2000/svg">
<path d="M22.1563 3.66669C32.3682 3.66669 40.646 11.9445 40.646 22.1563C40.646 32.3681 32.3682 40.6459 22.1563 40.6459C11.9445 40.6459 3.66669 32.3681 3.66669 22.1563C3.66669 11.9445 11.9445 3.66669 22.1563 3.66669ZM22.1563 11.0625C21.666 11.0625 21.1957 11.2573 20.8489 11.6041C20.5022 11.9508 20.3074 12.4211 20.3074 12.9115V22.1563C20.3075 22.6466 20.5024 23.1169 20.8491 23.4635L26.396 29.0104C26.7447 29.3472 27.2118 29.5336 27.6966 29.5294C28.1814 29.5251 28.6451 29.3307 28.9879 28.9879C29.3307 28.6451 29.5252 28.1813 29.5294 27.6965C29.5336 27.2117 29.3473 26.7447 29.0105 26.396L24.0053 21.3908V12.9115C24.0053 12.4211 23.8105 11.9508 23.4638 11.6041C23.117 11.2573 22.6467 11.0625 22.1563 11.0625Z" fill="#C6E7A3"/>
</svg>
