<svg width="24" height="24" viewBox="0 0 24 24" fill="none" xmlns="http://www.w3.org/2000/svg">
<path d="M12 1C10.4241 1 8.86371 1.30484 7.4078 1.89712C5.95189 2.4894 4.62902 3.35751 3.51472 4.4519C1.26428 6.66211 0 9.6598 0 12.7855C0 17.9947 3.444 22.4143 8.208 23.9817C8.808 24.076 9 23.7107 9 23.3925V21.4007C5.676 22.1078 4.968 19.8215 4.968 19.8215C4.416 18.4543 3.636 18.089 3.636 18.089C2.544 17.3583 3.72 17.3819 3.72 17.3819C4.92 17.4644 5.556 18.5958 5.556 18.5958C6.6 20.3872 8.364 19.8568 9.048 19.574C9.156 18.8079 9.468 18.2893 9.804 17.9947C7.14 17.7001 4.344 16.6865 4.344 12.1962C4.344 10.888 4.8 9.83913 5.58 9.00236C5.46 8.70772 5.04 7.48203 5.7 5.89099C5.7 5.89099 6.708 5.57278 9 7.09311C9.948 6.83383 10.98 6.70419 12 6.70419C13.02 6.70419 14.052 6.83383 15 7.09311C17.292 5.57278 18.3 5.89099 18.3 5.89099C18.96 7.48203 18.54 8.70772 18.42 9.00236C19.2 9.83913 19.656 10.888 19.656 12.1962C19.656 16.6983 16.848 17.6883 14.172 17.9829C14.604 18.3483 15 19.0672 15 20.1632V23.3925C15 23.7107 15.192 24.0878 15.804 23.9817C20.568 22.4025 24 17.9947 24 12.7855C24 11.2378 23.6896 9.70527 23.0866 8.27539C22.4835 6.84551 21.5996 5.54628 20.4853 4.4519C19.371 3.35751 18.0481 2.4894 16.5922 1.89712C15.1363 1.30484 13.5759 1 12 1Z" fill="#9256F2"/>
</svg>
