<svg width="68" height="68" viewBox="0 0 68 68" fill="none" xmlns="http://www.w3.org/2000/svg">
<path d="M35.4464 5.08814L35.7215 5.10498H45.4379L45.6622 5.09235C46.8666 4.96128 48.0823 4.96976 49.2847 5.11761C50.896 5.19564 52.468 5.63929 53.8805 6.41464C56.5466 7.61902 58.8742 9.56035 60.5331 12.0997C62.0621 14.4332 62.927 17.1354 63.0358 19.919C63.1446 22.7027 62.4932 25.4636 61.1509 27.9082L47.5454 14.1968C47.3482 13.9989 47.1135 13.8419 46.8549 13.7349C46.5963 13.6279 46.3189 13.5731 46.0388 13.5736H40.4062C39.945 13.5729 39.4962 13.7223 39.1282 13.9989L30.0381 20.8504C29.4823 21.2681 28.8405 21.5583 28.1588 21.7002C27.4771 21.8421 26.7722 21.8322 26.0948 21.6713C25.4173 21.5103 24.7841 21.2022 24.2403 20.769C23.6966 20.3359 23.2558 19.7885 22.9497 19.1659C22.4811 18.2042 22.3625 17.1104 22.6141 16.0712C22.8657 15.0321 23.4719 14.1121 24.3293 13.4683L35.4464 5.08814ZM18.5316 42.3777L18.4724 42.4324L15.2434 45.6329L15.1884 45.6834C14.7079 46.1315 14.0711 46.3763 13.4126 46.3661C12.7541 46.3559 12.1253 46.0915 11.659 45.6287C11.423 45.3974 11.2355 45.1218 11.1075 44.8178C10.9795 44.5138 10.9136 44.1875 10.9136 43.8579C10.9136 43.5283 10.9795 43.202 11.1075 42.8979C11.2355 42.5939 11.423 42.3183 11.659 42.0871L14.8922 38.8908C15.3681 38.419 16.0126 38.154 16.6844 38.154C17.3562 38.154 18.0007 38.419 18.4766 38.8908C19.4499 39.851 19.4669 41.3965 18.5316 42.3777ZM18.1888 48.6522C17.2578 49.6334 17.2747 51.1789 18.2438 52.1391C18.7198 52.6109 19.3642 52.8759 20.036 52.8759C20.7079 52.8759 21.3523 52.6109 21.8282 52.1391L25.0614 48.9428C25.3267 48.6811 25.5298 48.3637 25.6558 48.0138C25.7819 47.6639 25.8277 47.2904 25.79 46.9206C25.7523 46.5508 25.6319 46.1941 25.4378 45.8766C25.2436 45.559 24.9805 45.2887 24.6678 45.0854C24.1922 44.7728 23.6246 44.6286 23.0566 44.676C22.4885 44.7233 21.953 44.9595 21.5362 45.3465L21.477 45.4013L18.2481 48.5975L18.1888 48.6522ZM10.563 33.6943C10.799 33.9255 10.9865 34.2012 11.1145 34.5052C11.2425 34.8092 11.3084 35.1355 11.3084 35.4651C11.3084 35.7947 11.2425 36.121 11.1145 36.425C10.9865 36.729 10.799 37.0047 10.563 37.2359L7.32981 40.4321C6.8539 40.904 6.20944 41.169 5.53761 41.169C4.86577 41.169 4.22132 40.904 3.74541 40.4321C3.50933 40.2009 3.32185 39.9253 3.19388 39.6213C3.06591 39.3173 3 38.991 3 38.6613C3 38.3317 3.06591 38.0054 3.19388 37.7014C3.32185 37.3974 3.50933 37.1218 3.74541 36.8906L6.97856 33.6901C7.45448 33.2182 8.09893 32.9533 8.77077 32.9533C9.4426 32.9533 10.0871 33.2182 10.563 33.6901M31.6462 51.9074C31.8823 52.1386 32.0698 52.4143 32.1977 52.7183C32.3257 53.0223 32.3916 53.3486 32.3916 53.6782C32.3916 54.0078 32.3257 54.3341 32.1977 54.6381C32.0698 54.9422 31.8823 55.2178 31.6462 55.449L28.4131 58.6495C27.9371 59.1213 27.2927 59.3863 26.6209 59.3863C25.949 59.3863 25.3046 59.1213 24.8286 58.6495C24.4247 58.2536 24.1682 57.7327 24.1012 57.1724C24.0343 56.6122 24.161 56.046 24.4605 55.5669L24.4732 55.5501C24.5744 55.3884 24.6936 55.2387 24.8286 55.1037L28.0618 51.9074C28.5377 51.4356 29.1822 51.1706 29.854 51.1706C30.5258 51.1706 31.1703 51.4356 31.6462 51.9074ZM9.64042 10.9416C11.9935 8.61604 14.8871 6.90456 18.0645 5.9591C21.2419 5.01365 24.6047 4.86346 27.8544 5.52188L21.7732 10.112C20.8411 10.8148 20.0577 11.694 19.4682 12.6991C18.8787 13.7042 18.4946 14.8154 18.3381 15.9686C18.1816 17.1219 18.2557 18.2946 18.5562 19.4193C18.8566 20.544 19.3775 21.5985 20.0889 22.5222C21.5279 24.3899 23.651 25.6153 25.9947 25.9309C28.3384 26.2465 30.7123 25.6266 32.5984 24.2067L41.1214 17.7847H44.9682L53.1696 25.8911L53.1865 25.87L59.9914 32.73L60.0929 32.8268L63.7535 36.4695C64.5291 37.2503 64.9748 38.2971 64.999 39.3948C65.0231 40.4925 64.624 41.5577 63.8835 42.3717C63.143 43.1856 62.1174 43.6865 61.0173 43.7714C59.9173 43.8563 58.8263 43.5188 57.9685 42.8283L57.6596 42.5251L57.4311 42.3271L53.834 38.7477C53.4372 38.3523 52.8989 38.13 52.3374 38.1296C51.7759 38.1292 51.2372 38.3508 50.8399 38.7456C50.4426 39.1404 50.2192 39.6761 50.2188 40.2348C50.2184 40.7936 50.441 41.3296 50.8378 41.7249L54.655 45.5234C54.8017 45.6637 54.9498 45.7999 55.0993 45.9319L55.2263 46.0582C55.7751 46.6038 56.0837 47.344 56.0841 48.1159C56.0845 48.8879 55.7767 49.6284 55.2284 50.1746C54.6801 50.7207 53.9363 51.0278 53.1605 51.0281C52.3847 51.0285 51.6406 50.7223 51.0917 50.1767L50.5289 49.6208C50.2312 49.3254 49.8519 49.125 49.4392 49.0451C49.0266 48.9651 48.5994 49.0093 48.2121 49.172C47.8248 49.3346 47.495 49.6084 47.2647 49.9583C47.0344 50.3083 46.9141 50.7185 46.9191 51.1368C46.9135 51.4199 46.9654 51.7011 47.0715 51.9638C47.1777 52.2264 47.336 52.4651 47.5369 52.6654L48.2775 53.4024C48.5257 53.6493 48.7225 53.9424 48.8568 54.2651C48.9911 54.5877 49.0602 54.9335 49.0602 55.2827C49.0602 55.6319 48.9911 55.9776 48.8568 56.3003C48.7225 56.6229 48.5257 56.916 48.2775 57.1629C48.0294 57.4099 47.7348 57.6057 47.4106 57.7393C47.0864 57.873 46.7389 57.9418 46.388 57.9418C46.0371 57.9418 45.6896 57.873 45.3654 57.7393C45.0412 57.6057 44.7466 57.4099 44.4984 57.1629L44.1218 56.7839C43.9929 56.6347 43.8588 56.49 43.7198 56.3502L43.03 55.6638C42.6309 55.2802 42.0964 55.068 41.5416 55.0728C40.9868 55.0776 40.4561 55.299 40.0638 55.6894C39.6715 56.0798 39.449 56.6079 39.4441 57.16C39.4393 57.7121 39.6526 58.2439 40.038 58.641L40.5543 59.1548C40.6192 59.239 40.6897 59.3218 40.7659 59.4032L40.9733 59.6054C41.3954 60.1503 41.595 60.8338 41.5322 61.519C41.4694 62.2042 41.1488 62.8404 40.6347 63.3004C40.1205 63.7604 39.4507 64.0102 38.7594 63.9997C38.0681 63.9892 37.4063 63.7192 36.9064 63.2438L33.2459 59.8117L34.6509 58.4221C35.2796 57.8019 35.7787 57.064 36.1193 56.2508C36.4599 55.4377 36.6352 54.5655 36.6352 53.6845C36.6352 52.8036 36.4599 51.9314 36.1193 51.1183C35.7787 50.3051 35.2796 49.5672 34.6509 48.947C33.4246 47.7313 31.777 47.0291 30.0466 46.9846C29.9997 45.2714 29.2902 43.6422 28.066 42.4366C26.8408 41.2219 25.1949 40.5197 23.466 40.4742C23.418 38.7604 22.707 37.1311 21.4812 35.9262C20.698 35.1475 19.7349 34.5718 18.6762 34.2495C17.6174 33.9272 16.4955 33.8681 15.4085 34.0775C15.1327 32.8069 14.4933 31.6427 13.5676 30.7255C12.3752 29.5508 10.7892 28.8552 9.11338 28.7721C7.43758 28.6889 5.78988 29.2241 4.48599 30.2749C3.53969 26.8874 3.51929 23.3099 4.42691 19.912C5.33452 16.514 7.13724 13.4187 9.64888 10.9458" fill="#C7E7A4"/>
</svg>
