<svg width="40" height="40" viewBox="0 0 40 40" fill="none" xmlns="http://www.w3.org/2000/svg">
<rect width="40" height="40" rx="20" fill="#9256F2"/>
<path d="M20 15.9375C18.9226 15.9375 17.8892 16.3655 17.1274 17.1274C16.3655 17.8892 15.9375 18.9226 15.9375 20C15.9375 21.0774 16.3655 22.1108 17.1274 22.8726C17.8892 23.6345 18.9226 24.0625 20 24.0625C21.0774 24.0625 22.1108 23.6345 22.8726 22.8726C23.6345 22.1108 24.0625 21.0774 24.0625 20C24.0625 18.9226 23.6345 17.8892 22.8726 17.1274C22.1108 16.3655 21.0774 15.9375 20 15.9375Z" fill="#EEEAE7"/>
<path fill-rule="evenodd" clip-rule="evenodd" d="M13.4625 8.85249C17.8076 8.37115 22.1925 8.37115 26.5375 8.85249C28.9113 9.11749 30.825 10.9862 31.1038 13.3687C31.6187 17.7746 31.6187 22.2254 31.1038 26.6312C30.825 29.0137 28.9113 30.8825 26.5388 31.1487C22.1933 31.6302 17.808 31.6302 13.4625 31.1487C11.0888 30.8825 9.17503 29.0137 8.89628 26.6325C8.38125 22.2262 8.38125 17.775 8.89628 13.3687C9.17503 10.9862 11.0888 9.11749 13.4625 8.85249ZM26.25 12.5C25.9185 12.5 25.6006 12.6317 25.3661 12.8661C25.1317 13.1005 25 13.4185 25 13.75C25 14.0815 25.1317 14.3995 25.3661 14.6339C25.6006 14.8683 25.9185 15 26.25 15C26.5815 15 26.8995 14.8683 27.1339 14.6339C27.3683 14.3995 27.5 14.0815 27.5 13.75C27.5 13.4185 27.3683 13.1005 27.1339 12.8661C26.8995 12.6317 26.5815 12.5 26.25 12.5ZM14.0625 20C14.0625 18.4253 14.6881 16.915 15.8016 15.8015C16.9151 14.688 18.4253 14.0625 20 14.0625C21.5747 14.0625 23.085 14.688 24.1985 15.8015C25.312 16.915 25.9375 18.4253 25.9375 20C25.9375 21.5747 25.312 23.0849 24.1985 24.1984C23.085 25.3119 21.5747 25.9375 20 25.9375C18.4253 25.9375 16.9151 25.3119 15.8016 24.1984C14.6881 23.0849 14.0625 21.5747 14.0625 20Z" fill="#EEEAE7"/>
</svg>
