<svg width="24" height="24" viewBox="0 0 24 24" fill="none" xmlns="http://www.w3.org/2000/svg">
<path d="M21.2634 1.4262C20.8756 1.21025 20.4491 1.07296 20.0083 1.02217C19.5675 0.971374 19.121 1.00807 18.6944 1.13017C18.2678 1.25227 17.8693 1.45738 17.5218 1.73377C17.1743 2.01017 16.8845 2.35244 16.6691 2.74104L10.3974 14.0483L6.8081 10.4524C6.49648 10.1291 6.12371 9.87129 5.71156 9.69392C5.2994 9.51655 4.85611 9.42319 4.40756 9.41928C3.959 9.41538 3.51416 9.50101 3.09899 9.67118C2.68382 9.84135 2.30664 10.0927 1.98945 10.4104C1.67226 10.7282 1.42142 11.1061 1.25156 11.522C1.0817 11.9379 0.99623 12.3836 1.00013 12.833C1.00403 13.2823 1.09722 13.7264 1.27427 14.1393C1.45131 14.5522 1.70867 14.9257 2.03133 15.2379L8.78773 22.0067C9.42621 22.648 10.2877 23 11.1761 23L11.644 22.9662C12.1618 22.8936 12.6557 22.7016 13.0869 22.4053C13.518 22.109 13.8746 21.7165 14.1287 21.2587L22.5742 6.02897C22.7898 5.64053 22.9269 5.21334 22.9778 4.7718C23.0286 4.33027 22.9921 3.88302 22.8704 3.45561C22.7487 3.0282 22.5441 2.62899 22.2684 2.28078C21.9927 1.93258 21.6512 1.64219 21.2634 1.4262Z" fill="#C6E7A3"/>
</svg>
