<svg width="24" height="24" viewBox="0 0 24 24" fill="none" xmlns="http://www.w3.org/2000/svg">
<path d="M16.9719 6.25089C16.7423 6.12327 16.4898 6.04214 16.2288 6.01212C15.9679 5.98211 15.7036 6.0038 15.451 6.07595C15.1984 6.1481 14.9625 6.26931 14.7567 6.43264C14.551 6.59598 14.3795 6.79824 14.2519 7.02789L10.5389 13.7099L8.41392 11.5849C8.22942 11.3939 8.00874 11.2415 7.76473 11.1367C7.52072 11.0319 7.25828 10.9767 6.99272 10.9744C6.72716 10.9721 6.4638 11.0227 6.21801 11.1232C5.97222 11.2238 5.74891 11.3723 5.56113 11.5601C5.37334 11.7479 5.22484 11.9712 5.12427 12.217C5.02371 12.4628 4.97311 12.7261 4.97542 12.9917C4.97772 13.2572 5.0329 13.5197 5.13772 13.7637C5.24253 14.0077 5.3949 14.2284 5.58592 14.4129L9.58592 18.4129C9.96392 18.7919 10.4739 18.9999 10.9999 18.9999L11.2769 18.9799C11.5835 18.937 11.8759 18.8236 12.1311 18.6485C12.3864 18.4734 12.5975 18.2414 12.7479 17.9709L17.7479 8.97089C17.8756 8.74134 17.9568 8.48889 17.9869 8.22797C18.0169 7.96704 17.9953 7.70274 17.9233 7.45016C17.8512 7.19758 17.7301 6.96167 17.5669 6.7559C17.4036 6.55013 17.2015 6.37852 16.9719 6.25089Z" fill="#C6E7A3"/>
</svg>
