<svg width="40" height="40" viewBox="0 0 40 40" fill="none" xmlns="http://www.w3.org/2000/svg">
<rect width="40" height="40" rx="20" fill="#9256F2"/>
<path d="M14.8075 11.625C14.8072 12.2217 14.5699 12.7939 14.1477 13.2157C13.7255 13.6374 13.1531 13.8742 12.5564 13.8739C11.9596 13.8736 11.3875 13.6362 10.9657 13.2141C10.544 12.7919 10.3072 12.2195 10.3075 11.6227C10.3078 11.026 10.5451 10.4538 10.9673 10.0321C11.3895 9.61034 11.9619 9.37357 12.5586 9.37387C13.1554 9.37417 13.7275 9.61151 14.1493 10.0337C14.571 10.4558 14.8078 11.0283 14.8075 11.625ZM14.875 15.54H10.375V29.625H14.875V15.54ZM21.985 15.54H17.5075V29.625H21.94V22.2337C21.94 18.1162 27.3062 17.7337 27.3062 22.2337V29.625H31.75V20.7037C31.75 13.7625 23.8075 14.0212 21.94 17.43L21.985 15.54Z" fill="#EEEAE7"/>
</svg>
