<svg width="48" height="48" viewBox="0 0 48 48" fill="none" xmlns="http://www.w3.org/2000/svg">
<path d="M24 7.75C30.5227 7.75 36.2535 10.8593 40.2627 14.1602L40.9346 14.7246C42.2623 15.873 43.4843 17.1369 44.585 18.502L45.125 19.1934L45.126 19.1953C45.714 19.9899 46.2109 20.7754 46.5713 21.5127L46.6943 21.7715C46.981 22.4001 47.25 23.1852 47.25 24C47.25 24.9313 46.8958 25.8239 46.5713 26.4873L46.5703 26.4902C46.1588 27.3035 45.6749 28.0786 45.125 28.8066C43.7119 30.6708 42.0794 32.3609 40.2627 33.8398C36.2557 37.1407 30.5226 40.25 24 40.25C17.4773 40.25 11.7465 37.1407 7.7373 33.8398L7.06543 33.2754C5.51646 31.9357 4.11158 30.4379 2.875 28.8066C2.32514 28.0786 1.8412 27.3035 1.42969 26.4902L1.42871 26.4873C1.10145 25.8229 0.75 24.931 0.75 24C0.75 23.0687 1.10425 22.1761 1.42871 21.5127C1.78908 20.7754 2.28598 19.9899 2.87402 19.1953L2.875 19.1934C4.28812 17.3292 5.92057 15.6391 7.7373 14.1602C11.7443 10.8593 17.4774 7.75 24 7.75ZM31.2344 15.3945C31.1863 15.3916 31.1144 15.4038 31.0137 15.4512C30.8082 15.548 30.5489 15.7579 30.2422 16.0732C29.6332 16.6994 28.9144 17.6596 28.166 18.6787C27.4236 19.6897 26.6543 20.7554 25.9561 21.5664C25.6069 21.9719 25.2672 22.3227 24.9512 22.5742C24.6445 22.8183 24.3183 23.0029 24 23.0029C23.6823 23.0029 23.3554 22.82 23.0479 22.5771C22.7308 22.3268 22.3898 21.9772 22.0391 21.5732C21.3376 20.7652 20.5644 19.7033 19.8193 18.6943C19.0685 17.6777 18.3489 16.7174 17.7412 16.0889C17.4351 15.7722 17.1758 15.5603 16.9717 15.4609C16.8715 15.4122 16.8009 15.3993 16.7549 15.4014C16.7165 15.4032 16.6845 15.4153 16.6494 15.4502C16.3779 15.72 16.1572 16.2131 16.0098 16.9023C15.8641 17.5834 15.7969 18.4218 15.8057 19.3438C15.8231 21.1876 16.143 23.3355 16.7119 25.1729C17.3476 27.2261 18.5707 29.3351 19.1758 30.0752C19.9377 31.0072 20.8652 31.9284 21.7529 32.6143C22.1968 32.9572 22.6261 33.2381 23.0156 33.4316C23.4089 33.627 23.7422 33.7236 24 33.7236C24.2578 33.7236 24.5911 33.627 24.9844 33.4316C25.3739 33.2381 25.8032 32.9571 26.2471 32.6143C27.1348 31.9285 28.0632 31.0072 28.8252 30.0752C29.6291 29.0919 30.7415 27.249 31.2861 25.1826C31.782 23.3011 32.1015 21.1485 32.1377 19.3125C32.1558 18.3944 32.1028 17.5635 31.9688 16.8887C31.833 16.2057 31.6215 15.7187 31.3516 15.4502C31.3123 15.4112 31.2756 15.3971 31.2344 15.3945Z" fill="url(#paint0_linear_306_44)" stroke="url(#paint1_linear_306_44)" stroke-width="0.5"/>
<path fill-rule="evenodd" clip-rule="evenodd" d="M41.3682 9.56123C41.0729 8.81292 39.9271 8.81292 39.6318 9.56123L38.2918 12.9616L34.608 14.1985C33.7973 14.4711 33.7973 15.5289 34.608 15.8015L38.2918 17.0384L39.6318 20.4388C39.9271 21.1871 41.0729 21.1871 41.3682 20.4388L42.7082 17.0384L46.392 15.8015C47.2027 15.5289 47.2027 14.4711 46.392 14.1985L42.7082 12.9616L41.3682 9.56123Z" fill="url(#paint2_linear_306_44)" stroke="url(#paint3_linear_306_44)" stroke-width="0.5"/>
<defs>
<linearGradient id="paint0_linear_306_44" x1="1" y1="37.2139" x2="46.856" y2="10.5385" gradientUnits="userSpaceOnUse">
<stop offset="0.262809" stop-color="#D57EEE"/>
<stop offset="1" stop-color="#C6E7A3"/>
</linearGradient>
<linearGradient id="paint1_linear_306_44" x1="40.0366" y1="8" x2="8.16406" y2="40.1986" gradientUnits="userSpaceOnUse">
<stop stop-color="#D57EEE"/>
<stop offset="1" stop-color="#C6E7A3"/>
</linearGradient>
<linearGradient id="paint2_linear_306_44" x1="47" y1="9.09375" x2="35.0233" y2="21.8658" gradientUnits="userSpaceOnUse">
<stop stop-color="#C6E7A3"/>
<stop offset="1" stop-color="#D57EEE"/>
</linearGradient>
<linearGradient id="paint3_linear_306_44" x1="34" y1="18.5733" x2="46.4348" y2="10.5506" gradientUnits="userSpaceOnUse">
<stop stop-color="#C6E7A3"/>
<stop offset="1" stop-color="#D57EEE"/>
</linearGradient>
</defs>
</svg>
