<svg width="24" height="24" viewBox="0 0 24 24" fill="none" xmlns="http://www.w3.org/2000/svg">
<path fill-rule="evenodd" clip-rule="evenodd" d="M22.56 2H1.44C0.648 2 0 2.675 0 3.5V19C0 20.65 1.296 22 2.88 22H21.12C22.704 22 24 20.65 24 19V3.5C24 2.675 23.352 2 22.56 2ZM4.38 4.875C4.26023 4.7683 4.12147 4.68722 3.97162 4.63638C3.82177 4.58555 3.66378 4.56596 3.50666 4.57872C3.34955 4.59149 3.19638 4.63637 3.05591 4.7108C2.91545 4.78523 2.79043 4.88774 2.688 5.0125C2.58557 5.13726 2.50773 5.28181 2.45893 5.4379C2.41013 5.59399 2.39132 5.75856 2.40358 5.92223C2.41583 6.08589 2.45892 6.24544 2.53037 6.39176C2.60182 6.53807 2.70023 6.6683 2.82 6.775L11.064 14.1375C11.3254 14.3685 11.6572 14.4948 12 14.4937C12.3429 14.4945 12.6748 14.3677 12.936 14.1362L21.18 6.77375C21.3065 6.66928 21.4114 6.53932 21.4885 6.39164C21.5656 6.24396 21.6133 6.08158 21.6288 5.91424C21.6443 5.7469 21.6272 5.57803 21.5786 5.41773C21.5299 5.25742 21.4508 5.10899 21.3458 4.98129C21.2408 4.8536 21.1122 4.74928 20.9676 4.67458C20.823 4.59987 20.6655 4.55631 20.5043 4.5465C20.3432 4.53669 20.1819 4.56084 20.0299 4.6175C19.878 4.67416 19.7385 4.76216 19.62 4.87625L12 11.68L4.38 4.875Z" fill="#9256F2"/>
</svg>
