<svg width="24" height="24" viewBox="0 0 24 24" fill="none" xmlns="http://www.w3.org/2000/svg">
<path fill-rule="evenodd" clip-rule="evenodd" d="M17.4781 22.3985C15.8626 22.3417 11.2841 21.7373 6.48915 17.1581C1.69529 12.5777 1.06366 8.20532 1.00308 6.66104C0.913325 4.30765 2.80035 2.02178 4.9802 1.12908C5.2427 1.0208 5.53015 0.979579 5.81436 1.00945C6.09857 1.03932 6.36977 1.13927 6.60134 1.29947C8.39637 2.54904 9.63495 4.43947 10.6985 5.92587C10.9325 6.25244 11.0326 6.64984 10.9796 7.04234C10.9266 7.43484 10.7244 7.795 10.4113 8.05421L8.22248 9.60706C8.11673 9.68001 8.0423 9.78714 8.013 9.90855C7.9837 10.03 8.00152 10.1574 8.06317 10.2672C8.55905 11.1278 9.44086 12.4095 10.4506 13.374C11.4603 14.3385 12.866 15.2366 13.8297 15.7638C13.9505 15.8286 14.0928 15.8467 14.2272 15.8144C14.3615 15.7821 14.4779 15.7019 14.5522 15.5902L15.977 13.5187C16.239 13.1863 16.6254 12.9636 17.0554 12.8973C17.4853 12.831 17.9255 12.9261 18.2836 13.1629C19.8622 14.2067 21.7043 15.3694 23.0528 17.0187C23.2342 17.2415 23.3495 17.5068 23.3868 17.7867C23.4241 18.0667 23.382 18.3511 23.2649 18.6102C22.3258 20.7031 19.9497 22.4853 17.4781 22.3985Z" fill="#9256F2"/>
</svg>
