<svg width="68" height="68" viewBox="0 0 68 68" fill="none" xmlns="http://www.w3.org/2000/svg">
<path fill-rule="evenodd" clip-rule="evenodd" d="M60.3728 20.7401C59.8061 20.945 59.1932 20.9835 58.6055 20.8512C58.0179 20.7189 57.4796 20.4212 57.0533 19.9927L54.7132 17.631L36.9202 35.5556C36.6249 35.8533 36.2743 36.0894 35.8884 36.2505C35.5025 36.4116 35.0889 36.4945 34.6712 36.4945C34.2535 36.4945 33.8398 36.4116 33.4539 36.2505C33.068 36.0894 32.7174 35.8533 32.4222 35.5556L25.6348 28.7181L9.46557 45.007C9.17212 45.3128 8.82115 45.5566 8.43315 45.7243C8.04515 45.892 7.62789 45.9802 7.2057 45.9837C6.78352 45.9872 6.36487 45.9059 5.97419 45.7447C5.58351 45.5834 5.22862 45.3454 4.93022 45.0445C4.63182 44.7436 4.3959 44.3859 4.23621 43.9922C4.07652 43.5984 3.99627 43.1766 4.00013 42.7513C4.004 42.326 4.09191 41.9057 4.25873 41.515C4.42555 41.1243 4.66794 40.771 4.97175 40.4756L23.3794 21.9189C23.6747 21.6212 24.0253 21.3851 24.4112 21.224C24.7971 21.0629 25.2107 20.98 25.6285 20.98C26.0462 20.98 26.4598 21.0629 26.8457 21.224C27.2316 21.3851 27.5822 21.6212 27.8775 21.9189L34.6691 28.7608L50.2151 13.0996L47.8749 10.7421C47.4488 10.3134 47.1523 9.77147 47.02 9.17955C46.8876 8.58762 46.9249 7.97001 47.1274 7.3986C47.33 6.82718 47.6895 6.32548 48.1641 5.95188C48.6386 5.57827 49.2088 5.34815 49.8081 5.28828C53.6787 4.90391 55.9045 4.90391 59.6309 5.28828C60.3582 5.36403 61.0373 5.68996 61.5539 6.21116C62.0705 6.73236 62.393 7.41699 62.4671 8.14974C62.8529 11.8995 62.8487 14.146 62.4671 18.041C62.4075 18.6445 62.179 19.2185 61.8083 19.6963C61.4375 20.1741 60.9398 20.5361 60.3728 20.7401ZM53.4922 27.1806C53.9726 26.7113 54.5877 26.4067 55.2499 26.31C55.9121 26.2134 56.5877 26.3297 57.1805 26.6424L61.3013 28.8206C61.8345 29.1032 62.2769 29.5327 62.5772 30.059C62.8774 30.5853 63.023 31.1866 62.997 31.793L61.827 59.9293C61.793 60.7556 61.4431 61.5367 60.8505 62.1091C60.2578 62.6815 59.4684 63.0007 58.6474 63H50.2872C50.0061 63 49.7365 62.8875 49.5378 62.6873C49.339 62.487 49.2273 62.2155 49.2273 61.9323V31.7973C49.227 31.654 49.2554 31.512 49.3108 31.3799C49.3661 31.2478 49.4473 31.1284 49.5495 31.0286L53.4922 27.1806ZM43.928 61.9323C43.928 62.2155 43.8164 62.487 43.6176 62.6873C43.4188 62.8875 43.1492 63 42.8682 63H26.9702C26.6891 63 26.4196 62.8875 26.2208 62.6873C26.022 62.487 25.9104 62.2155 25.9104 61.9323V37.1017C25.9104 37.0163 25.974 36.9479 26.0588 36.9565C26.7498 36.9906 27.4281 37.2554 27.9877 37.7466L34.9616 43.9137C35.1616 44.091 35.4205 44.1859 35.6868 44.1796C35.9531 44.1732 36.2073 44.0661 36.3988 43.8795L42.1305 38.2762C42.2801 38.1301 42.4692 38.0316 42.6741 37.9932C42.8789 37.9547 43.0905 37.978 43.2823 38.06C43.4741 38.142 43.6377 38.2792 43.7525 38.4544C43.8674 38.6296 43.9284 38.835 43.928 39.0449V61.9323ZM18.7923 42.8716L5.60767 56.4357C5.02414 57.0341 4.69688 57.8391 4.69619 58.6779V59.7969C4.69619 61.565 6.12064 63 7.87577 63H19.5512C19.8323 63 20.1019 62.8875 20.3006 62.6873C20.4994 62.487 20.6111 62.2155 20.6111 61.9323V43.619C20.6115 43.4065 20.5489 43.1987 20.4314 43.0222C20.3139 42.8457 20.1468 42.7086 19.9515 42.6283C19.7562 42.5481 19.5416 42.5283 19.3351 42.5717C19.1286 42.615 18.9396 42.7194 18.7923 42.8716Z" fill="#C7E7A4"/>
</svg>
