<svg width="30" height="30" viewBox="0 0 30 30" fill="none" xmlns="http://www.w3.org/2000/svg">
<path d="M15 13.75C17.0711 13.75 18.75 12.0711 18.75 10C18.75 7.92893 17.0711 6.25 15 6.25C12.9289 6.25 11.25 7.92893 11.25 10C11.25 12.0711 12.9289 13.75 15 13.75Z" stroke="#9747FF" stroke-width="2.5" stroke-linecap="round"/>
<path d="M19.085 9.99996C19.248 9.71334 19.466 9.46179 19.7266 9.25979C19.9871 9.05778 20.2851 8.90932 20.6033 8.82293C20.9215 8.73655 21.2536 8.71395 21.5805 8.75645C21.9075 8.79895 22.2228 8.90569 22.5083 9.07055C22.7939 9.2354 23.044 9.4551 23.2442 9.71701C23.4445 9.97891 23.591 10.2778 23.6753 10.5966C23.7595 10.9153 23.7799 11.2476 23.7353 11.5743C23.6906 11.9009 23.5818 12.2155 23.415 12.5C23.0811 13.0695 22.5356 13.4838 21.8973 13.6526C21.2591 13.8213 20.58 13.7307 20.0083 13.4006C19.4366 13.0706 19.0186 12.5277 18.8456 11.8906C18.6727 11.2535 18.7587 10.5739 19.085 9.99996ZM6.58502 9.99996C6.74797 9.71334 6.96601 9.46179 7.22658 9.25979C7.48715 9.05778 7.7851 8.90932 8.10328 8.82293C8.42147 8.73655 8.75359 8.71395 9.08054 8.75645C9.40749 8.79895 9.72281 8.90569 10.0083 9.07055C10.2939 9.2354 10.544 9.4551 10.7442 9.71701C10.9445 9.97891 11.091 10.2778 11.1753 10.5966C11.2595 10.9153 11.2799 11.2476 11.2353 11.5743C11.1906 11.9009 11.0818 12.2155 10.915 12.5C10.5811 13.0695 10.0356 13.4838 9.39731 13.6526C8.75907 13.8213 8.08 13.7307 7.50828 13.4006C6.93656 13.0706 6.51861 12.5277 6.34564 11.8906C6.17267 11.2535 6.25872 10.5739 6.58502 9.99996Z" stroke="#9747FF" stroke-width="2.5"/>
<path d="M21.1025 22.5L19.8775 22.7463L20.0775 23.75H21.1025V22.5ZM18.475 18.3888L17.72 17.3925L16.2737 18.4913L17.8162 19.45L18.475 18.3888ZM24.835 21.25H21.1037L21.1025 23.75H24.835V21.25ZM24.7225 21.5475C24.7092 21.5059 24.707 21.4615 24.7162 21.4188C24.7229 21.3742 24.7415 21.3323 24.77 21.2975C24.81 21.2475 24.8437 21.25 24.835 21.25V23.75C26.2675 23.75 27.6762 22.4 27.0787 20.7125L24.7225 21.5475ZM21.25 18.75C23.3025 18.75 24.2537 20.2263 24.7225 21.5475L27.0787 20.7125C26.4975 19.0737 24.935 16.25 21.25 16.25V18.75ZM19.2325 19.3837C19.7125 19.0187 20.3525 18.75 21.25 18.75V16.25C19.7975 16.25 18.6287 16.7025 17.72 17.3925L19.2325 19.3837ZM17.8162 19.45C19.115 20.2575 19.6587 21.665 19.8762 22.7463L22.3262 22.2537C22.055 20.9 21.2962 18.67 19.1362 17.3263L17.8162 19.45ZM11.525 18.3875L12.1837 19.45L13.7262 18.4913L12.28 17.3925L11.525 18.3875ZM8.89748 22.5V23.75H9.92123L10.1237 22.7463L8.89748 22.5ZM8.74998 18.75C9.64748 18.75 10.2875 19.0187 10.7675 19.3837L12.28 17.3925C11.3712 16.7025 10.2025 16.25 8.74998 16.25V18.75ZM5.27748 21.5475C5.74623 20.2263 6.69748 18.75 8.74998 18.75V16.25C5.06498 16.25 3.50248 19.0737 2.92123 20.7125L5.27748 21.5475ZM5.16498 21.25C5.15748 21.25 5.18998 21.2475 5.23123 21.2975C5.25928 21.3325 5.27742 21.3744 5.28373 21.4188C5.29293 21.4615 5.29078 21.5059 5.27748 21.5475L2.92123 20.7125C2.32498 22.4 3.73373 23.75 5.16623 23.75L5.16498 21.25ZM8.89748 21.25H5.16498L5.16623 23.75H8.89748V21.25ZM10.1225 22.7463C10.3412 21.665 10.885 20.2575 12.185 19.45L10.8625 17.325C8.70248 18.6687 7.94373 20.9 7.67123 22.2525L10.1225 22.7463Z" fill="#9747FF"/>
<path d="M15 17.5C19.465 17.5 20.74 20.6888 21.1037 22.5113C21.24 23.1875 20.6912 23.75 20 23.75H9.99997C9.30997 23.75 8.75997 23.1875 8.89622 22.5113C9.25997 20.6875 10.535 17.5 15 17.5Z" stroke="#9747FF" stroke-width="2.5" stroke-linecap="round"/>
</svg>
