<svg width="48" height="48" viewBox="0 0 48 48" fill="none" xmlns="http://www.w3.org/2000/svg">
<path d="M24 21.6C25.9096 21.6 27.7409 20.8414 29.0912 19.4912C30.4414 18.1409 31.2 16.3096 31.2 14.4C31.2 12.4905 30.4414 10.6591 29.0912 9.30884C27.7409 7.95858 25.9096 7.20001 24 7.20001C22.0904 7.20001 20.2591 7.95858 18.9088 9.30884C17.5586 10.6591 16.8 12.4905 16.8 14.4C16.8 16.3096 17.5586 18.1409 18.9088 19.4912C20.2591 20.8414 22.0904 21.6 24 21.6ZM14.4 19.2C14.4 20.4731 13.8943 21.6939 12.9941 22.5941C12.0939 23.4943 10.873 24 9.6 24C8.32696 24 7.10606 23.4943 6.20589 22.5941C5.30571 21.6939 4.8 20.4731 4.8 19.2C4.8 17.927 5.30571 16.7061 6.20589 15.8059C7.10606 14.9057 8.32696 14.4 9.6 14.4C10.873 14.4 12.0939 14.9057 12.9941 15.8059C13.8943 16.7061 14.4 17.927 14.4 19.2ZM3.576 36.7824C3.16629 36.5496 2.85947 36.1708 2.7168 35.7216C2.29393 34.352 2.2895 32.8873 2.70406 31.5152C3.11863 30.143 3.93333 28.9259 5.04382 28.0195C6.15432 27.1132 7.51007 26.5589 8.93746 26.4278C10.3649 26.2966 11.7989 26.5945 13.056 27.2832C10.472 29.8214 8.85505 33.1818 8.484 36.7848C8.4296 37.3208 8.4496 37.844 8.544 38.3544C6.79285 38.2006 5.09687 37.664 3.576 36.7824ZM39.456 38.352C41.207 38.199 42.9029 37.6631 44.424 36.7824C44.8328 36.5491 45.1387 36.1704 45.2808 35.7216C45.7043 34.3518 45.7093 32.8868 45.295 31.5142C44.8807 30.1416 44.0661 28.924 42.9555 28.0173C41.8448 27.1106 40.4888 26.5561 39.061 26.4249C37.6333 26.2937 36.1989 26.5917 34.9416 27.2808C37.5278 29.8189 39.1466 33.1804 39.5184 36.7848C39.5725 37.3083 39.5515 37.8369 39.456 38.3544M43.2 19.2C43.2 20.4731 42.6943 21.6939 41.7941 22.5941C40.8939 23.4943 39.673 24 38.4 24C37.127 24 35.9061 23.4943 35.0059 22.5941C34.1057 21.6939 33.6 20.4731 33.6 19.2C33.6 17.927 34.1057 16.7061 35.0059 15.8059C35.9061 14.9057 37.127 14.4 38.4 14.4C39.673 14.4 40.8939 14.9057 41.7941 15.8059C42.6943 16.7061 43.2 17.927 43.2 19.2ZM12.7296 38.856C12.4923 38.6445 12.3084 38.3799 12.1928 38.0837C12.0773 37.7876 12.0334 37.4683 12.0648 37.152C12.3701 34.1988 13.7593 31.4635 15.964 29.475C18.1687 27.4865 21.0322 26.3858 24.0012 26.3858C26.9702 26.3858 29.8338 27.4865 32.0384 29.475C34.2431 31.4635 35.6323 34.1988 35.9376 37.152C35.969 37.4683 35.9251 37.7876 35.8096 38.0837C35.694 38.3799 35.5101 38.6445 35.2728 38.856C32.1863 41.6557 28.1671 43.2045 24 43.2C19.8333 43.2062 15.8143 41.6571 12.7296 38.856Z" fill="#C7E7A4"/>
</svg>
