<svg width="24" height="24" viewBox="0 0 24 24" fill="none" xmlns="http://www.w3.org/2000/svg">
<path d="M12.0853 2C17.6554 2 22.1705 6.51517 22.1705 12.0852C22.1705 17.6553 17.6554 22.1705 12.0853 22.1705C6.51517 22.1705 2 17.6553 2 12.0852C2 6.51517 6.51517 2 12.0853 2ZM12.0853 6.0341C11.8178 6.0341 11.5613 6.14035 11.3721 6.32949C11.183 6.51862 11.0767 6.77515 11.0767 7.04262V12.0852C11.0768 12.3527 11.1831 12.6092 11.3722 12.7983L14.3978 15.8238C14.588 16.0076 14.8428 16.1092 15.1072 16.1069C15.3716 16.1046 15.6246 15.9986 15.8116 15.8116C15.9986 15.6246 16.1046 15.3716 16.1069 15.1072C16.1092 14.8428 16.0076 14.588 15.8239 14.3978L13.0938 11.6677V7.04262C13.0938 6.77515 12.9875 6.51862 12.7984 6.32949C12.6093 6.14035 12.3527 6.0341 12.0853 6.0341Z" fill="#C6E7A3"/>
</svg>
