<svg width="48" height="38" viewBox="0 0 48 38" fill="none" xmlns="http://www.w3.org/2000/svg">
<path d="M9.6 7.125C9.6 4.50508 11.7525 2.375 14.4 2.375H40.8C43.4475 2.375 45.6 4.50508 45.6 7.125V24.9375H38.4V23.75C38.4 22.4363 37.3275 21.375 36 21.375H31.2C29.8725 21.375 28.8 22.4363 28.8 23.75V24.9375H19.1175C19.935 23.5422 20.4 21.9168 20.4 20.1875C20.4 14.9402 16.1025 10.6875 10.8 10.6875C10.395 10.6875 9.99 10.7098 9.6 10.7617V7.125ZM24.975 33.25C24.5925 31.4539 23.7525 29.8285 22.5675 28.5H45.6C45.6 31.1199 43.4475 33.25 40.8 33.25H24.975ZM4.8 20.1875C4.8 18.6128 5.43214 17.1026 6.55736 15.9891C7.68258 14.8756 9.2087 14.25 10.8 14.25C12.3913 14.25 13.9174 14.8756 15.0426 15.9891C16.1679 17.1026 16.8 18.6128 16.8 20.1875C16.8 21.7622 16.1679 23.2724 15.0426 24.3859C13.9174 25.4994 12.3913 26.125 10.8 26.125C9.2087 26.125 7.68258 25.4994 6.55736 24.3859C5.43214 23.2724 4.8 21.7622 4.8 20.1875ZM0 35.625C0 31.6914 3.225 28.5 7.2 28.5H14.4C18.375 28.5 21.6 31.6914 21.6 35.625C21.6 36.9387 20.5275 38 19.2 38H2.4C1.0725 38 0 36.9387 0 35.625Z" fill="#C7E7A4"/>
</svg>
