<svg width="30" height="30" viewBox="0 0 30 30" fill="none" xmlns="http://www.w3.org/2000/svg">
<path d="M10 23.75H6.25C5.58696 23.75 4.95107 23.4866 4.48223 23.0178C4.01339 22.5489 3.75 21.913 3.75 21.25V8.75C3.75 8.08696 4.01339 7.45107 4.48223 6.98223C4.95107 6.51339 5.58696 6.25 6.25 6.25H23.75C24.413 6.25 25.0489 6.51339 25.5178 6.98223C25.9866 7.45107 26.25 8.08696 26.25 8.75V22.5C26.25 22.8315 26.1183 23.1495 25.8839 23.3839C25.6495 23.6183 25.3315 23.75 25 23.75" stroke="#9747FF" stroke-width="2.5" stroke-linecap="round" stroke-linejoin="round"/>
<path d="M21.25 23.75C21.25 23.087 20.9866 22.4511 20.5178 21.9823C20.0489 21.5134 19.413 21.25 18.75 21.25H16.25C15.587 21.25 14.9511 21.5134 14.4822 21.9823C14.0134 22.4511 13.75 23.087 13.75 23.75M15 17.5C15.0001 17.8284 15.0648 18.1536 15.1906 18.4569C15.3163 18.7603 15.5006 19.0359 15.7329 19.2681C15.9651 19.5002 16.2408 19.6843 16.5443 19.8099C16.8477 19.9355 17.1729 20.0001 17.5013 20C17.8296 19.9999 18.1548 19.9352 18.4582 19.8094C18.7615 19.6837 19.0371 19.4994 19.2693 19.2672C19.5014 19.0349 19.6855 18.7592 19.8111 18.4558C19.9367 18.1524 20.0013 17.8272 20.0012 17.4988C20.0011 16.8356 19.7375 16.1996 19.2684 15.7308C18.7993 15.2619 18.1632 14.9986 17.5 14.9988C16.8368 14.9989 16.2008 15.2626 15.732 15.7316C15.2631 16.2007 14.9998 16.8368 15 17.5Z" stroke="#9747FF" stroke-width="2.5" stroke-linecap="round" stroke-linejoin="round"/>
</svg>
