<svg width="40" height="40" viewBox="0 0 40 40" fill="none" xmlns="http://www.w3.org/2000/svg">
<rect width="40" height="40" rx="20" fill="#9256F2"/>
<path d="M33.2034 13C32.305 13.4083 31.3367 13.6767 30.3334 13.805C31.36 13.1867 32.1534 12.2067 32.5267 11.0283C31.5584 11.6117 30.485 12.02 29.3534 12.2533C28.4317 11.25 27.1367 10.6667 25.6667 10.6667C22.925 10.6667 20.685 12.9067 20.685 15.6717C20.685 16.0683 20.7317 16.4533 20.8134 16.815C16.66 16.605 12.9617 14.61 10.5 11.5883C10.0684 12.3233 9.82336 13.1867 9.82336 14.0967C9.82336 15.835 10.6984 17.375 12.0517 18.25C11.2234 18.25 10.4534 18.0167 9.77669 17.6667V17.7017C9.77669 20.1283 11.5034 22.1583 13.79 22.6133C13.056 22.8151 12.2851 22.843 11.5384 22.695C11.8552 23.6896 12.4758 24.5598 13.3129 25.1834C14.1499 25.807 15.1614 26.1526 16.205 26.1717C14.436 27.5723 12.243 28.3293 9.98669 28.3183C9.59003 28.3183 9.19336 28.295 8.79669 28.2483C11.0134 29.6717 13.65 30.5 16.4734 30.5C25.6667 30.5 30.7184 22.87 30.7184 16.255C30.7184 16.0333 30.7184 15.8233 30.7067 15.6017C31.6867 14.9017 32.5267 14.015 33.2034 13Z" fill="#EEEAE7"/>
</svg>
