<svg width="68" height="68" viewBox="0 0 68 68" fill="none" xmlns="http://www.w3.org/2000/svg">
<path d="M34 4.25C50.4309 4.25 63.75 17.5691 63.75 34C63.75 50.4309 50.4309 63.75 34 63.75C17.5691 63.75 4.25 50.4309 4.25 34C4.25 17.5691 17.5691 4.25 34 4.25ZM39.95 38.165L35.2971 41.8867C35.1338 42.0175 34.9999 42.1812 34.9041 42.3672C34.8084 42.5532 34.7529 42.7573 34.7414 42.9662C34.7299 43.175 34.7626 43.384 34.8373 43.5794C34.912 43.7748 35.0272 43.9522 35.1751 44.1001L38.8611 47.7862C39.5749 48.5008 40.095 49.3854 40.3724 50.3565L40.8931 52.1802C41.1089 52.9454 41.4924 53.6528 42.0158 54.2513C42.5391 54.8498 43.1891 55.3242 43.9186 55.6401C46.7653 54.334 49.3261 52.4788 51.4543 50.181L50.7582 44.5969C50.6363 43.6254 50.2767 42.699 49.711 41.8998C49.1453 41.1006 48.3912 40.4533 47.5154 40.0154L43.1422 37.8258C42.6334 37.5712 42.0622 37.4678 41.4964 37.5279C40.9306 37.588 40.3939 37.8091 39.95 38.165ZM34 10.2C30.3589 10.1976 26.7658 11.0317 23.4981 12.6379C20.2304 14.2442 17.3754 16.5796 15.1534 19.4641L14.6625 20.1216V25.1345C14.6621 26.9507 15.2159 28.7239 16.2498 30.2171C17.2837 31.7103 18.7486 32.8526 20.4489 33.4913L20.9784 33.6698L24.8162 34.8449C28.9008 36.0944 32.8784 32.7713 32.4827 28.6093L32.4262 28.1779L31.9056 25.0572C31.7905 24.3659 31.9232 23.6561 32.2803 23.0531C32.6373 22.4501 33.1958 21.9924 33.8572 21.7608L34.1785 21.6716L35.9992 21.2551C37.0322 21.019 38.0075 20.5783 38.8674 19.9591C39.7274 19.34 40.4546 18.5548 41.0061 17.65C41.5577 16.7451 41.9224 15.739 42.0787 14.6909C42.2351 13.6429 42.1799 12.5741 41.9165 11.5477C39.373 10.6533 36.6961 10.1976 34 10.2Z" fill="#C7E7A4"/>
</svg>
